<svg width="157" height="57" viewBox="0 0 157 57" fill="none" xmlns="http://www.w3.org/2000/svg">
<g clip-path="url(#clip0_1_287)">
<mask id="mask0_1_287" style="mask-type:luminance" maskUnits="userSpaceOnUse" x="0" y="0" width="157" height="57">
<path d="M157 0.453125H0V56.4531H157V0.453125Z" fill="white"/>
</mask>
<g mask="url(#mask0_1_287)">
<path d="M17.7237 0.453125C21.4804 0.453125 22.6609 3.18653 23.6513 5.91566C24.0673 7.07457 33.8297 34.1945 34.1233 35.0085C34.2014 35.2356 34.1486 35.6083 33.8044 35.7433C33.4581 35.8761 28.3857 37.8769 28.1049 37.984C27.824 38.0932 27.5094 37.9347 27.408 37.6498C27.3024 37.3692 25.197 31.4568 24.9605 30.797H10.491C10.263 31.4568 8.13223 37.382 8.0372 37.6498C7.94006 37.9219 7.63809 38.1061 7.33822 37.984C7.03836 37.864 1.947 35.8632 1.64292 35.7433C1.3515 35.6276 1.21846 35.2913 1.31982 35.0085C1.67882 33.9931 11.2935 7.30807 11.7834 5.91566C12.7379 3.22723 13.9585 0.453125 17.7237 0.453125ZM0.546935 48.9797C0.242847 48.9797 0 49.2368 0 49.5496V55.8882C0 56.201 0.242847 56.4538 0.546935 56.4538H34.8856C35.196 56.4538 35.4389 56.201 35.4389 55.8882V49.5496C35.4389 49.2368 35.196 48.9797 34.8856 48.9797H0.546935ZM17.6899 9.30886L12.7991 24.2077H22.6609L17.7532 9.30886H17.6899ZM91.0784 33.7382C90.3583 33.9845 89.8832 34.0445 89.3173 34.0445C88.1474 34.0445 87.4991 33.5754 87.4991 32.3586C87.4991 31.0905 88.3227 30.6663 89.9402 30.6663C90.3351 30.6663 90.7237 30.7242 90.9053 30.7884V31.6967C90.9053 32.6757 90.9581 33.3183 91.0784 33.7382ZM95.2364 35.1906C94.3727 33.8603 94.1468 33.0763 94.1468 31.3989V27.9929C94.1468 26.1592 93.9356 25.4973 93.4583 24.8289C92.7932 23.8821 91.6845 23.4708 89.6467 23.4708C88.2044 23.4708 86.8043 23.6293 85.4486 23.9806L85.9385 26.4013C86.855 26.2706 87.8158 26.1592 88.4937 26.1592C90.6582 26.1592 90.9053 26.4762 90.9053 28.1236V28.7384C90.4238 28.6077 89.8832 28.5134 89.256 28.5134C85.9977 28.5134 84.2766 30.1308 84.2766 32.8085C84.2766 35.3191 86.1159 36.688 88.3564 36.688C89.1927 36.688 90.0669 36.5316 90.7596 36.2445C91.1777 36.0603 91.3593 35.9511 91.8999 35.5955C92.2251 36.0753 92.8776 36.5659 93.1437 36.658L95.2364 35.1906ZM127.468 33.7382C126.743 33.9845 126.277 34.0445 125.706 34.0445C124.532 34.0445 123.876 33.5754 123.876 32.3586C123.876 31.0905 124.71 30.6663 126.331 30.6663C126.726 30.6663 127.117 30.7242 127.294 30.7884V31.6967C127.294 32.6757 127.345 33.3183 127.468 33.7382ZM131.63 35.1906C130.76 33.8603 130.538 33.0763 130.538 31.3989V27.9929C130.538 26.1592 130.323 25.4973 129.841 24.8289C129.184 23.8821 128.074 23.4708 126.03 23.4708C124.589 23.4708 123.181 23.6293 121.825 23.9806L122.309 26.4013C123.227 26.2706 124.19 26.1592 124.887 26.1592C127.039 26.1592 127.294 26.4762 127.294 28.1236V28.7384C126.813 28.6077 126.277 28.5134 125.637 28.5134C122.374 28.5134 120.647 30.1308 120.647 32.8085C120.647 35.3191 122.49 36.688 124.741 36.688C125.588 36.688 126.454 36.5316 127.14 36.2445C127.565 36.0603 127.74 35.9511 128.281 35.5955C128.61 36.0753 129.263 36.5659 129.531 36.658L131.63 35.1906ZM157 36.4031C157 36.4031 155.213 32.5407 154.776 31.6624C154.284 30.6727 153.828 29.9894 152.823 29.743V29.6873C153.497 29.5567 154.033 29.1432 154.62 27.8794C155.175 26.6476 155.34 26.382 155.667 26.0885C155.988 25.7972 156.428 25.9021 156.428 25.9021L156.592 23.625C156.126 23.5607 155.608 23.5586 155.074 23.5886C154.187 23.6421 153.729 23.9013 153.292 24.3469C152.95 24.6875 152.717 25.1974 152.43 25.7822C152.126 26.4205 151.885 26.9347 151.569 27.5837C151.254 28.2499 151.106 28.5499 150.259 28.5499H149.708V18.4624H146.446V36.4031H149.708V31.2447L150.154 31.2361C151.089 31.2361 151.254 31.4739 151.748 32.4743C152.327 33.6675 153.435 36.4031 153.435 36.4031H157ZM65.0895 36.4031H68.8547L63.1594 18.7623C62.5597 18.5588 61.8185 18.4324 61.0266 18.4324C60.1629 18.4324 59.8546 18.5481 59.1788 18.7623L53.152 36.4031H56.7651C56.7651 36.4031 57.2529 34.8564 57.8273 32.9392H64.0696C64.6271 34.8543 65.0895 36.4031 65.0895 36.4031ZM58.7438 29.9808C58.7438 29.9808 59.787 26.4398 59.9496 25.8893C60.3635 24.4626 60.9928 22.1962 60.9928 22.1962H61.0963C61.0963 22.1962 61.6791 24.544 62.0592 25.8636C62.2028 26.3884 63.1995 29.9808 63.1995 29.9808H58.7438ZM100.794 27.9629C99.6436 27.9629 98.7081 28.9162 98.7081 30.0836C98.7081 31.2597 99.6436 32.2065 100.794 32.2065C101.947 32.2065 102.879 31.2597 102.879 30.0836C102.879 28.9162 101.947 27.9629 100.794 27.9629ZM73.3252 18.4624H70.0542V36.4009H73.3252V18.4624ZM138.313 26.322C140.121 26.3606 140.345 26.7397 140.345 28.2778V36.4031H143.586V27.9929C143.586 26.1592 143.375 25.4973 142.894 24.8289C142.229 23.8821 140.921 23.4708 138.71 23.4708C136.523 23.4708 135.129 23.7064 133.336 24.2484V36.4031H136.611V26.4762C137.471 26.3498 137.623 26.322 138.313 26.322ZM81.4152 18.1432C79.3711 18.1432 78.2582 18.5545 77.6036 19.4992C77.1221 20.1697 76.9088 20.8466 76.9088 22.6846V24.2484H75.2849V26.9304H76.9088V36.4031H80.1524L80.144 26.9304H83.377V24.2484H80.144L80.1524 22.811C80.1524 21.1658 80.3995 20.8466 82.5661 20.8466C82.8005 20.8466 83.0645 20.8595 83.3453 20.8809L83.8564 18.3038C83.056 18.1967 82.2367 18.1432 81.4152 18.1432ZM107.44 18.3103C108.553 18.2439 111.041 18.1496 112.601 18.1496C112.886 18.1496 113.182 18.1518 113.477 18.1667C116.546 18.1667 118.305 20.4332 118.305 23.0937C118.305 24.9039 117.488 26.1056 115.572 26.8211C117.825 27.3267 119.006 29.1111 119.006 31.294C119.006 32.8963 118.56 34.1688 117.743 35.0363C116.683 36.0946 115.078 36.688 112.941 36.688C111.041 36.688 108.654 36.628 107.44 36.5551V18.3103ZM112.601 21.2493C112.06 21.2493 111.391 21.26 110.728 21.2836V25.5915H112.603C113.347 25.5915 113.944 25.3816 114.352 24.9767C114.74 24.5954 114.943 24.0556 114.943 23.4151C114.943 22.0377 114.208 21.2579 112.842 21.2493H112.601ZM112.669 33.5947H112.81C114.514 33.5947 115.557 32.6757 115.57 30.8248C115.553 30.1608 115.302 29.5481 114.852 29.1047C114.36 28.6034 113.663 28.3421 112.846 28.3421H110.728V33.5754C111.326 33.5882 111.984 33.5904 112.669 33.5947Z" fill="#A3A4A6"/>
</g>
</g>
<defs>
<clipPath id="clip0_1_287">
<rect width="157" height="56" fill="white" transform="translate(0 0.453125)"/>
</clipPath>
</defs>
</svg>
