<svg width="51" height="42" viewBox="0 0 51 42" fill="none" xmlns="http://www.w3.org/2000/svg">
<path d="M15.815 26.6133C15.826 27.2653 16.034 28.5342 16.346 29.5242C17.003 31.6202 18.115 33.5603 19.664 35.2693C21.253 37.0253 23.21 38.4372 25.471 39.4382C27.846 40.4902 30.4209 41.0272 33.0949 41.0222C35.7639 41.0192 38.338 40.4722 40.714 39.4122C42.975 38.4002 44.93 36.9833 46.516 35.2263C48.064 33.5093 49.175 31.5663 49.833 29.4703C50.164 28.4113 50.3729 27.3362 50.4569 26.2572C50.5389 25.1952 50.504 24.1303 50.353 23.0673C50.059 20.9943 49.3419 19.0503 48.2379 17.2773C47.2279 15.6483 45.926 14.2222 44.379 13.0222L44.382 13.0192L28.763 1.02645C28.749 1.01585 28.737 1.00445 28.722 0.994752C27.697 0.208052 25.974 0.210654 24.847 0.999154C23.708 1.79625 23.577 3.11525 24.591 3.94625L24.5869 3.95125L31.102 9.24825L11.245 9.26925H11.219C9.578 9.27125 7.99996 10.3483 7.68796 11.7093C7.36696 13.0953 8.48196 14.2453 10.188 14.2513L10.185 14.2572L20.25 14.2383L2.29099 28.0232C2.26799 28.0402 2.24296 28.0572 2.22196 28.0742C0.527959 29.3713 -0.0200336 31.5293 1.04697 32.8943C2.12997 34.2823 4.43299 34.2853 6.14499 32.9023L15.946 24.8802C15.946 24.8802 15.803 25.9633 15.815 26.6133ZM41.0009 30.2392C38.9809 32.2972 36.1539 33.4632 33.0949 33.4702C30.0309 33.4752 27.203 32.3192 25.184 30.2652C24.197 29.2642 23.472 28.1122 23.025 26.8852C22.587 25.6802 22.417 24.4003 22.529 23.1093C22.636 21.8473 23.012 20.6433 23.612 19.5543C24.201 18.4833 25.0119 17.5163 26.0139 16.6982C27.9769 15.0982 30.476 14.2322 33.09 14.2282C35.707 14.2252 38.204 15.0833 40.169 16.6773C41.169 17.4923 41.9799 18.4563 42.5689 19.5253C43.1709 20.6133 43.544 21.8132 43.655 23.0782C43.767 24.3682 43.596 25.6452 43.158 26.8522C42.71 28.0822 41.9879 29.2342 41.0009 30.2392Z" fill="#EA7600"/>
</svg>
