<svg width="51" height="51" viewBox="0 0 51 51" fill="none" xmlns="http://www.w3.org/2000/svg">
<mask id="mask0_1_1492" style="mask-type:luminance" maskUnits="userSpaceOnUse" x="0" y="0" width="51" height="51">
<path d="M50.5 0.515625H0.5V50.5156H50.5V0.515625Z" fill="white"/>
</mask>
<g mask="url(#mask0_1_1492)">
<path d="M41.1944 0.515625H9.8056C4.66667 0.515625 0.5 4.75172 0.5 9.98062V41.0506C0.5 46.2796 4.66667 50.5156 9.8056 50.5156H41.1944C46.3333 50.5156 50.5 46.2796 50.5 41.0506V9.98062C50.5 4.75172 46.3333 0.515625 41.1944 0.515625Z" fill="#2C2E37"/>
<path d="M19.6391 45.2236C23.0141 45.2236 25.7571 42.4326 25.7571 38.9946V32.7656H19.6391C16.2641 32.7656 13.521 35.5576 13.521 38.9946C13.521 42.4326 16.2641 45.2236 19.6391 45.2236Z" fill="#0ACF83"/>
<path d="M13.5142 26.5366C13.5142 23.0986 16.2572 20.3076 19.6322 20.3076H25.7503V32.7656H19.6322C16.2572 32.7656 13.5142 29.9736 13.5142 26.5366Z" fill="#A259FF"/>
<path d="M13.5142 14.0786C13.5142 10.6406 16.2572 7.84863 19.6322 7.84863H25.7503V20.3076H19.6322C16.2572 20.3076 13.5142 17.5156 13.5142 14.0786Z" fill="#F24E1E"/>
<path d="M25.7563 7.84863H31.8744C35.2494 7.84863 37.9925 10.6406 37.9925 14.0786C37.9925 17.5156 35.2494 20.3076 31.8744 20.3076H25.7563V7.84863Z" fill="#FF7262"/>
<path d="M37.9925 26.5366C37.9925 29.9736 35.2494 32.7656 31.8744 32.7656C28.4994 32.7656 25.7563 29.9736 25.7563 26.5366C25.7563 23.0986 28.4994 20.3076 31.8744 20.3076C35.2494 20.3076 37.9925 23.0986 37.9925 26.5366Z" fill="#1ABCFE"/>
</g>
</svg>
