<svg width="51" height="51" viewBox="0 0 51 51" fill="none" xmlns="http://www.w3.org/2000/svg">
<mask id="mask0_1_1512" style="mask-type:luminance" maskUnits="userSpaceOnUse" x="0" y="0" width="51" height="51">
<path d="M50.5 0.515625H0.5V50.5156H50.5V0.515625Z" fill="white"/>
</mask>
<g mask="url(#mask0_1_1512)">
<path d="M9.354 0.515625H41.646C46.542 0.515625 50.5 4.57543 50.5 9.59663V41.4346C50.5 46.4556 46.542 50.5156 41.646 50.5156H9.354C4.458 50.5156 0.5 46.4556 0.5 41.4346V9.59663C0.5 4.57543 4.458 0.515625 9.354 0.515625Z" fill="#330000"/>
<path d="M24.728 30.5154H16.978L15.395 35.5364C15.353 35.7284 15.186 35.8575 14.999 35.8355H11.0819C10.8529 35.8355 10.79 35.7075 10.853 35.4515L17.5609 15.6434C17.6239 15.4294 17.686 15.1944 17.77 14.9384C17.853 14.4894 17.895 14.0194 17.895 13.5494C17.874 13.4424 17.9569 13.3355 18.0609 13.3145C18.0819 13.3145 18.103 13.3145 18.124 13.3145H23.4569C23.6239 13.3145 23.707 13.3785 23.728 13.4855L31.3319 35.4934C31.3949 35.7284 31.332 35.8355 31.124 35.8355H26.77C26.624 35.8575 26.4779 35.7505 26.4359 35.6005L24.728 30.5154ZM18.1859 26.1775H23.478C23.353 25.7285 23.186 25.1945 22.999 24.6395C22.811 24.0625 22.6239 23.4425 22.4359 22.8015C22.2279 22.1395 22.0399 21.4984 21.8319 20.8354C21.6239 20.1734 21.436 19.5534 21.27 18.9334C21.103 18.3354 20.9569 17.7804 20.8109 17.2674H20.77C20.582 18.1864 20.3529 19.1045 20.0609 20.0235C19.7489 21.0495 19.436 22.1174 19.103 23.1864C18.811 24.2754 18.4989 25.2805 18.1859 26.1775Z" fill="#FF9A00"/>
<path d="M35.8741 16.9685C35.1861 16.9895 34.5201 16.7115 34.0201 16.2205C33.5401 15.6865 33.29 14.9805 33.311 14.2545C33.29 13.5275 33.561 12.8445 34.061 12.3525C34.561 11.8615 35.228 11.6045 35.915 11.6045C36.728 11.6045 37.353 11.8615 37.811 12.3525C38.27 12.8655 38.5201 13.5495 38.4991 14.2545C38.5201 14.9805 38.2701 15.6865 37.7701 16.2205C37.2901 16.7335 36.5821 17.0105 35.8741 16.9685ZM33.54 35.5155V19.0625C33.54 18.8485 33.624 18.7625 33.811 18.7625H37.936C38.124 18.7625 38.207 18.8695 38.207 19.0625V35.5155C38.207 35.7505 38.124 35.8565 37.936 35.8565H33.8531C33.6451 35.8565 33.54 35.7285 33.54 35.5155Z" fill="#FF9A00"/>
</g>
</svg>
