<svg width="49" height="49" viewBox="0 0 49 49" fill="none" xmlns="http://www.w3.org/2000/svg">
<path d="M21.08 24.2638C21.2659 24.4513 21.4871 24.5999 21.7308 24.7015C21.9746 24.803 22.236 24.8554 22.5 24.8554C22.764 24.8554 23.0254 24.803 23.2692 24.7015C23.5129 24.5999 23.7341 24.4513 23.92 24.2638L31.92 16.2638C32.1065 16.0773 32.2544 15.8559 32.3553 15.6123C32.4562 15.3687 32.5082 15.1075 32.5082 14.8438C32.5082 14.58 32.4562 14.3188 32.3553 14.0752C32.2544 13.8316 32.1065 13.6102 31.92 13.4237C31.7335 13.2373 31.5121 13.0893 31.2685 12.9885C31.0249 12.8876 30.7637 12.8356 30.5 12.8356C30.2363 12.8356 29.9751 12.8876 29.7315 12.9885C29.4879 13.0893 29.2665 13.2373 29.08 13.4237L22.5 20.0238L19.92 17.4237C19.5434 17.0471 19.0326 16.8356 18.5 16.8356C17.9674 16.8356 17.4566 17.0471 17.08 17.4237C16.7034 17.8004 16.4918 18.3111 16.4918 18.8438C16.4918 19.3764 16.7034 19.8871 17.08 20.2638L21.08 24.2638ZM42.5 28.8438H40.5V8.84375H42.5C43.0304 8.84375 43.5391 8.63304 43.9142 8.25796C44.2893 7.88289 44.5 7.37418 44.5 6.84375C44.5 6.31332 44.2893 5.80461 43.9142 5.42954C43.5391 5.05446 43.0304 4.84375 42.5 4.84375H6.5C5.96957 4.84375 5.46086 5.05446 5.08579 5.42954C4.71071 5.80461 4.5 6.31332 4.5 6.84375C4.5 7.37418 4.71071 7.88289 5.08579 8.25796C5.46086 8.63304 5.96957 8.84375 6.5 8.84375H8.5V28.8438H6.5C5.96957 28.8438 5.46086 29.0545 5.08579 29.4296C4.71071 29.8046 4.5 30.3134 4.5 30.8438C4.5 31.3741 4.71071 31.8829 5.08579 32.2579C5.46086 32.633 5.96957 32.8438 6.5 32.8438H22.5V35.1437L13.4 41.1437C13.0267 41.3748 12.7398 41.7224 12.5835 42.1328C12.4273 42.5431 12.4105 42.9934 12.5356 43.4142C12.6607 43.8351 12.9208 44.2031 13.2759 44.4614C13.6309 44.7198 14.0611 44.8541 14.5 44.8438C14.8932 44.8483 15.2779 44.7294 15.6 44.5037L22.5 39.9437V42.8438C22.5 43.3741 22.7107 43.8829 23.0858 44.2579C23.4609 44.633 23.9696 44.8438 24.5 44.8438C25.0304 44.8438 25.5391 44.633 25.9142 44.2579C26.2893 43.8829 26.5 43.3741 26.5 42.8438V39.9437L33.4 44.5037C33.7221 44.7294 34.1068 44.8483 34.5 44.8438C34.9273 44.8405 35.3423 44.7004 35.6842 44.444C36.0261 44.1877 36.2769 43.8286 36.3999 43.4194C36.5229 43.0103 36.5116 42.5724 36.3677 42.1701C36.2237 41.7677 35.9547 41.4221 35.6 41.1838L26.5 35.1838V32.8438H42.5C43.0304 32.8438 43.5391 32.633 43.9142 32.2579C44.2893 31.8829 44.5 31.3741 44.5 30.8438C44.5 30.3134 44.2893 29.8046 43.9142 29.4296C43.5391 29.0545 43.0304 28.8438 42.5 28.8438ZM36.5 28.8438H12.5V8.84375H36.5V28.8438Z" fill="#1D6CE3"/>
</svg>
