<svg width="49" height="49" viewBox="0 0 49 49" fill="none" xmlns="http://www.w3.org/2000/svg">
<path d="M30.0403 12.5837C30.4995 12.8444 31.0432 12.9131 31.5528 12.7744C32.0624 12.6358 32.4964 12.3012 32.7603 11.8438C32.9786 11.4584 33.3186 11.1565 33.727 10.9853C34.1354 10.8141 34.5891 10.7832 35.0169 10.8976C35.4448 11.012 35.8225 11.2651 36.091 11.6173C36.3594 11.9695 36.5034 12.4009 36.5003 12.8438C36.5003 13.3741 36.2896 13.8828 35.9145 14.2579C35.5394 14.633 35.0307 14.8438 34.5003 14.8438C33.9698 14.8438 33.4611 15.0545 33.0861 15.4296C32.711 15.8047 32.5003 16.3133 32.5003 16.8438C32.5003 17.3742 32.711 17.8828 33.0861 18.2579C33.4611 18.633 33.9698 18.8438 34.5003 18.8438C35.5533 18.8431 36.5877 18.5653 37.4993 18.0382C38.411 17.5112 39.1679 16.7535 39.694 15.8413C40.2201 14.9291 40.4969 13.8944 40.4964 12.8413C40.496 11.7882 40.2184 10.7539 39.6916 9.84208C39.1648 8.93028 38.4073 8.17319 37.4952 7.64688C36.5831 7.12057 35.5485 6.84358 34.4955 6.84375C33.4424 6.84392 32.4079 7.12124 31.496 7.64784C30.5841 8.17444 29.8268 8.93177 29.3003 9.84375C29.168 10.072 29.0823 10.3242 29.0479 10.5857C29.0135 10.8473 29.0313 11.113 29.1 11.3678C29.1688 11.6225 29.2873 11.8609 29.4487 12.0696C29.61 12.2783 29.8111 12.453 30.0403 12.5837ZM38.6403 26.8438C38.1153 26.7757 37.5847 26.9184 37.1648 27.2409C36.7449 27.5632 36.47 28.0389 36.4003 28.5637C35.9806 31.9541 34.3357 35.0739 31.7755 37.3358C29.2153 39.5975 25.9165 40.8452 22.5003 40.8438H11.3203L12.6203 39.5438C12.9928 39.1691 13.2019 38.6622 13.2019 38.1338C13.2019 37.6054 12.9928 37.0985 12.6203 36.7238C10.6702 34.766 9.34305 32.275 8.80607 29.5643C8.26908 26.8537 8.54626 24.0448 9.60268 21.4914C10.6591 18.938 12.4475 16.7544 14.7427 15.2156C17.0378 13.6767 19.737 12.8514 22.5003 12.8438C23.0307 12.8438 23.5394 12.633 23.9145 12.2579C24.2896 11.8828 24.5003 11.3741 24.5003 10.8438C24.5003 10.3133 24.2896 9.80461 23.9145 9.42954C23.5394 9.05446 23.0307 8.84375 22.5003 8.84375C19.1187 8.85786 15.8096 9.82422 12.9519 11.6321C10.0942 13.44 7.80354 16.0164 6.34241 19.066C4.88127 22.1156 4.30873 25.5152 4.69037 28.875C5.07201 32.2351 6.39241 35.4196 8.50028 38.0638L5.08028 41.4238C4.80276 41.705 4.61477 42.0621 4.54002 42.4501C4.46527 42.8382 4.50712 43.2395 4.66028 43.6037C4.81032 43.9689 5.06511 44.2817 5.39256 44.5023C5.72 44.7229 6.10543 44.8418 6.50028 44.8438H22.5003C26.8832 44.8443 31.1157 43.2458 34.4039 40.3479C37.6921 37.4501 39.81 33.452 40.3603 29.1038C40.3969 28.8423 40.3813 28.5762 40.3145 28.3207C40.2477 28.0653 40.131 27.8256 39.9711 27.6154C39.8112 27.4053 39.6112 27.229 39.3828 27.0965C39.1544 26.9641 38.9021 26.8782 38.6403 26.8438ZM35.2603 20.9837C34.8962 20.8226 34.4923 20.7739 34.1003 20.8438L33.7403 20.9638L33.3803 21.1437L33.0803 21.4037C32.9004 21.588 32.7578 21.8054 32.6603 22.0438C32.542 22.2933 32.4871 22.568 32.5003 22.8438C32.4945 23.1105 32.5421 23.3757 32.6403 23.6238C32.7437 23.8638 32.8932 24.0812 33.0803 24.2638C33.2672 24.4492 33.4888 24.5957 33.7325 24.6952C33.9761 24.7948 34.2371 24.8452 34.5003 24.8438C35.0307 24.8438 35.5394 24.633 35.9145 24.2579C36.2896 23.8829 36.5003 23.3741 36.5003 22.8438C36.507 22.5814 36.4522 22.3211 36.3403 22.0837C36.1254 21.6031 35.7409 21.2186 35.2603 21.0037V20.9837Z" fill="#1D6CE3"/>
</svg>
