<svg width="49" height="49" viewBox="0 0 49 49" fill="none" xmlns="http://www.w3.org/2000/svg">
<path d="M38.5 4.84375H10.5C8.9087 4.84375 7.38258 5.47589 6.25736 6.60111C5.13214 7.72633 4.5 9.25245 4.5 10.8438V30.8438C4.5 32.4351 5.13214 33.9611 6.25736 35.0863C7.38258 36.2116 8.9087 36.8438 10.5 36.8438H33.68L41.08 44.2637C41.2669 44.4491 41.4885 44.5958 41.7322 44.6953C41.9759 44.7949 42.2368 44.8452 42.5 44.8438C42.7624 44.8506 43.0226 44.7957 43.26 44.6838C43.6252 44.5337 43.9379 44.2789 44.1586 43.9515C44.3792 43.6241 44.498 43.2385 44.5 42.8438V10.8438C44.5 9.25245 43.8679 7.72633 42.7426 6.60111C41.6174 5.47589 40.0913 4.84375 38.5 4.84375ZM12.04 32.8438H10.5C9.96957 32.8438 9.46086 32.633 9.08579 32.2579C8.71071 31.8829 8.5 31.3741 8.5 30.8438V30.0037L15.1 23.4237C15.4747 23.0513 15.9816 22.8421 16.51 22.8421C17.0384 22.8421 17.5453 23.0513 17.92 23.4237L19.66 25.1637L12.04 32.8438ZM40.5 38.0238L35.92 33.4238C35.7331 33.2384 35.5115 33.0917 35.2678 32.9922C35.0241 32.8926 34.7632 32.8423 34.5 32.8438H17.68L31.1 19.4237C31.4739 19.0573 31.9765 18.8521 32.5 18.8521C33.0235 18.8521 33.5261 19.0573 33.9 19.4237L40.5 26.0037V38.0238ZM40.5 20.3638L36.74 16.6237C35.615 15.5001 34.09 14.8691 32.5 14.8691C30.91 14.8691 29.385 15.5001 28.26 16.6237L22.5 22.3638L20.74 20.6238C19.6001 19.5287 18.0807 18.917 16.5 18.917C14.9193 18.917 13.3999 19.5287 12.26 20.6238L8.5 24.3638V10.8438C8.5 10.3133 8.71071 9.80461 9.08579 9.42954C9.46086 9.05446 9.96957 8.84375 10.5 8.84375H38.5C39.0304 8.84375 39.5391 9.05446 39.9142 9.42954C40.2893 9.80461 40.5 10.3133 40.5 10.8438V20.3638Z" fill="#1D6CE3"/>
</svg>
