<svg width="49" height="49" viewBox="0 0 49 49" fill="none" xmlns="http://www.w3.org/2000/svg">
<path d="M38.5 4.84375H10.5C8.9087 4.84375 7.38258 5.47589 6.25736 6.60111C5.13214 7.72633 4.5 9.25245 4.5 10.8438V30.8438C4.5 32.4351 5.13214 33.9611 6.25736 35.0863C7.38258 36.2116 8.9087 36.8438 10.5 36.8438H16.5V40.8438H10.5C9.96957 40.8438 9.46086 41.0545 9.08579 41.4296C8.71071 41.8046 8.5 42.3134 8.5 42.8438C8.5 43.3741 8.71071 43.8829 9.08579 44.2579C9.46086 44.633 9.96957 44.8438 10.5 44.8438H38.5C39.0304 44.8438 39.5391 44.633 39.9142 44.2579C40.2893 43.8829 40.5 43.3741 40.5 42.8438C40.5 42.3134 40.2893 41.8046 39.9142 41.4296C39.5391 41.0545 39.0304 40.8438 38.5 40.8438H32.5V36.8438H38.5C40.0913 36.8438 41.6174 36.2116 42.7426 35.0863C43.8679 33.9611 44.5 32.4351 44.5 30.8438V10.8438C44.5 9.25245 43.8679 7.72633 42.7426 6.60111C41.6174 5.47589 40.0913 4.84375 38.5 4.84375ZM28.5 40.8438H20.5V36.8438H28.5V40.8438ZM40.5 30.8438C40.5 31.3741 40.2893 31.8829 39.9142 32.2579C39.5391 32.633 39.0304 32.8438 38.5 32.8438H10.5C9.96957 32.8438 9.46086 32.633 9.08579 32.2579C8.71071 31.8829 8.5 31.3741 8.5 30.8438V28.8438H40.5V30.8438ZM40.5 24.8438H8.5V10.8438C8.5 10.3133 8.71071 9.80461 9.08579 9.42954C9.46086 9.05446 9.96957 8.84375 10.5 8.84375H38.5C39.0304 8.84375 39.5391 9.05446 39.9142 9.42954C40.2893 9.80461 40.5 10.3133 40.5 10.8438V24.8438Z" fill="#1D6CE3"/>
</svg>
