<svg width="157" height="41" viewBox="0 0 157 41" fill="none" xmlns="http://www.w3.org/2000/svg">
<g clip-path="url(#clip0_1_302)">
<mask id="mask0_1_302" style="mask-type:luminance" maskUnits="userSpaceOnUse" x="1" y="0" width="155" height="40">
<path d="M156 0.953125H1V39.9531H156V0.953125Z" fill="white"/>
</mask>
<g mask="url(#mask0_1_302)">
<path fill-rule="evenodd" clip-rule="evenodd" d="M14.7814 0.955078C11.9058 0.955078 8.49636 3.74994 5.68411 8.44864C2.75299 13.3149 1.00439 19.3392 1.00439 24.5708C1.00439 32.2295 5.25582 39.9531 14.7822 39.9531C24.2971 39.9531 28.5599 32.2295 28.5599 24.5708C28.5599 19.3392 26.8121 13.3149 23.8952 8.44864C21.0566 3.74994 17.6475 0.955078 14.7814 0.955078ZM89.1778 12.4457H98.8223V37.8646H109.156V12.4457H118.796V3.04317H89.1778V12.4446V12.4457ZM140.841 12.4457H155.996V3.04317H140.841C126.917 3.04317 119.481 10.0417 119.481 20.4527C119.481 30.8637 126.917 37.8646 140.841 37.8646H155.996V28.4624H140.841C134.396 28.4624 130.161 26.134 130.161 20.4539C130.161 14.7738 134.396 12.4457 140.841 12.4457ZM68.1608 3.04317L62.6536 23.8266L57.1465 3.04317H38.8929V37.8646H49.2223V9.54184L56.7292 37.8646H68.5781L76.0889 9.52473V37.8646H86.4223V3.04317H68.1608Z" fill="#A3A4A6"/>
</g>
</g>
<defs>
<clipPath id="clip0_1_302">
<rect width="156" height="40" fill="white" transform="translate(0.5 0.453125)"/>
</clipPath>
</defs>
</svg>
