<svg width="143" height="33" viewBox="0 0 143 33" fill="none" xmlns="http://www.w3.org/2000/svg">
<g clip-path="url(#clip0_1_310)">
<mask id="mask0_1_310" style="mask-type:luminance" maskUnits="userSpaceOnUse" x="0" y="0" width="143" height="32">
<path d="M142.5 0.953125H0.5V31.9531H142.5V0.953125Z" fill="white"/>
</mask>
<g mask="url(#mask0_1_310)">
<path fill-rule="evenodd" clip-rule="evenodd" d="M17.5706 1.0384C14.3783 0.703025 11.1601 1.362 8.3585 2.92473C5.55689 4.48747 3.30936 6.87726 1.92483 9.76563C0.540306 12.654 0.0867552 15.8991 0.62652 19.055C1.16629 22.2109 2.67287 25.1226 4.93919 27.3898C7.20551 29.6571 10.1203 31.1687 13.2829 31.7168C16.4456 32.2648 19.7008 31.8225 22.6012 30.4506C25.5015 29.0788 27.9047 26.8446 29.4802 24.0553C31.0558 21.266 31.7265 18.0585 31.4001 14.8737C31.0409 11.3335 29.4696 8.02485 26.9507 5.50489C24.4318 2.98493 21.1192 1.40757 17.5706 1.0384ZM17.0672 24.6499C15.3502 24.8797 13.6042 24.567 12.0746 23.756C10.545 22.945 9.30871 21.6763 8.5394 20.1283C7.77008 18.5803 7.50647 16.8308 7.7856 15.1257C8.06473 13.4206 8.87258 11.8455 10.0956 10.622C11.3186 9.39838 12.8953 8.58777 14.6042 8.30404C16.313 8.02032 18.068 8.27776 19.6225 9.04017C21.177 9.80258 22.453 11.0316 23.2709 12.5546C24.0889 14.0776 24.4078 15.8179 24.1829 17.531C23.9468 19.3328 23.1217 21.0068 21.8353 22.2938C20.549 23.5807 18.8731 24.4089 17.0672 24.6499ZM39.7106 1.65145C39.1717 1.65273 38.6398 1.77383 38.1538 2.00591C37.6677 2.23799 37.2396 2.57523 36.9007 2.99309C36.5618 3.41094 36.3205 3.8989 36.1945 4.42145C36.0684 4.94401 36.0608 5.48801 36.1721 6.01389C36.513 7.71754 38.1086 8.8816 39.8467 8.8816H49.9335L34.2362 29.5994C34.1201 29.7523 34.049 29.9345 34.0309 30.1255C34.0128 30.3165 34.0484 30.5087 34.1337 30.6806C34.219 30.8526 34.3506 30.9974 34.5138 31.0989C34.677 31.2004 34.8654 31.2546 35.0577 31.2553H59.6805C61.4174 31.2553 63.0141 30.0916 63.3551 28.3876C63.4664 27.8618 63.4588 27.3179 63.3329 26.7954C63.207 26.2729 62.9658 25.785 62.6271 25.3671C62.2883 24.9492 61.8604 24.6119 61.3745 24.3797C60.8886 24.1474 60.3569 24.0261 59.8181 24.0246H47.5281L63.2134 3.32292C63.3306 3.16848 63.4024 2.98452 63.4206 2.79168C63.4389 2.59884 63.4029 2.40474 63.3167 2.23116C63.2305 2.05759 63.0975 1.9114 62.9326 1.809C62.7677 1.7066 62.5775 1.65204 62.3833 1.65145H39.7106ZM138.101 1.73485C137.286 1.92817 136.562 2.39317 136.047 3.05295C135.533 3.71274 135.26 4.52781 135.273 5.36338V17.4013L115.715 1.87882C115.562 1.75739 115.377 1.68162 115.182 1.66021C114.988 1.6388 114.791 1.67262 114.615 1.7578C114.439 1.84297 114.29 1.97602 114.186 2.14165C114.083 2.30728 114.028 2.49877 114.028 2.69407V27.5498C114.015 28.3854 114.288 29.2005 114.802 29.8603C115.317 30.5201 116.041 30.9851 116.856 31.1784C117.386 31.2945 117.935 31.2907 118.462 31.1671C118.99 31.0436 119.483 30.8035 119.905 30.4645C120.327 30.1255 120.668 29.6963 120.902 29.2086C121.135 28.7208 121.256 28.187 121.255 27.6464V15.5043L140.814 31.0271C140.967 31.1484 141.152 31.2242 141.346 31.2456C141.541 31.2669 141.738 31.2331 141.914 31.148C142.09 31.0629 142.238 30.9299 142.342 30.7643C142.446 30.5987 142.501 30.4074 142.5 30.2121V5.26565C142.501 4.72521 142.38 4.19153 142.146 3.70396C141.912 3.2164 141.572 2.78737 141.15 2.44852C140.727 2.10967 140.234 1.86964 139.707 1.74612C139.179 1.62261 138.631 1.61875 138.101 1.73485ZM87.1771 8.18955C95.4497 8.18955 101.631 12.5496 101.631 16.4497C101.631 20.3498 95.4497 24.7099 87.1771 24.7099C78.9045 24.7099 72.7233 20.3498 72.7233 16.4497C72.7233 12.5496 78.9045 8.18955 87.1771 8.18955ZM87.1771 0.959686C75.2029 0.959686 65.4961 7.89487 65.4961 16.4497C65.4961 25.0046 75.2029 31.9398 87.1771 31.9398C99.1514 31.9398 108.858 25.0046 108.858 16.4497C108.858 7.89487 99.1511 0.959686 87.1771 0.959686Z" fill="#A3A4A6"/>
</g>
</g>
<defs>
<clipPath id="clip0_1_310">
<rect width="143" height="32" fill="white" transform="translate(0 0.453125)"/>
</clipPath>
</defs>
</svg>
