<svg width="21" height="22" viewBox="0 0 21 22" fill="none" xmlns="http://www.w3.org/2000/svg">
<g clip-path="url(#clip0_1_96)">
<mask id="mask0_1_96" style="mask-type:luminance" maskUnits="userSpaceOnUse" x="0" y="1" width="21" height="21">
<path d="M20.02 1.0625H0.0199585V21.0625H20.02V1.0625Z" fill="white"/>
</mask>
<g mask="url(#mask0_1_96)">
<path d="M3.56163 1.0625H16.4783C18.4367 1.0625 20.02 2.68643 20.02 4.69498V17.43C20.02 19.4386 18.4367 21.0625 16.4783 21.0625H3.56163C1.60329 21.0625 0.0199585 19.4386 0.0199585 17.43V4.69498C0.0199585 2.68643 1.60329 1.0625 3.56163 1.0625Z" fill="#001E36"/>
<path d="M4.18597 15.2874V6.75906C4.18597 6.70104 4.21097 6.66789 4.2693 6.66789C4.41097 6.66789 4.5443 6.66789 4.73597 6.6596C4.93597 6.65132 5.1443 6.65132 5.3693 6.64303C5.5943 6.63474 5.83597 6.63474 6.0943 6.62645C6.35263 6.61816 6.60263 6.61816 6.85263 6.61816C7.53597 6.61816 8.10263 6.70104 8.5693 6.87509C8.98597 7.01599 9.3693 7.24805 9.68597 7.55471C9.95263 7.81993 10.161 8.14316 10.2943 8.49954C10.4193 8.84764 10.486 9.20402 10.486 9.57698C10.486 10.2898 10.3193 10.8782 9.98597 11.3423C9.65263 11.8065 9.18597 12.1546 8.6443 12.3535C8.07763 12.5607 7.45263 12.6353 6.7693 12.6353C6.5693 12.6353 6.43597 12.6353 6.35263 12.627C6.2693 12.6187 6.15263 12.6187 5.9943 12.6187V15.2791C6.00263 15.3371 5.96097 15.3869 5.90263 15.3952C5.8943 15.3952 5.88597 15.3952 5.8693 15.3952H4.28597C4.2193 15.3952 4.18597 15.362 4.18597 15.2874ZM6.00263 8.26748V11.0522C6.1193 11.0605 6.22763 11.0688 6.32763 11.0688H6.7693C7.0943 11.0688 7.4193 11.0191 7.72763 10.9196C7.9943 10.845 8.22763 10.6876 8.41097 10.4804C8.58597 10.2732 8.6693 9.99138 8.6693 9.62671C8.67763 9.36978 8.61097 9.11285 8.47763 8.88908C8.33597 8.67359 8.13597 8.50783 7.8943 8.41666C7.58597 8.29234 7.25263 8.24261 6.91097 8.2509C6.6943 8.2509 6.50263 8.2509 6.3443 8.25919C6.17763 8.2509 6.06097 8.25919 6.00263 8.26748Z" fill="#31A8FF"/>
<path d="M15.6858 10.5469C15.4358 10.4143 15.1692 10.3231 14.8858 10.2651C14.5775 10.1988 14.2692 10.1574 13.9525 10.1574C13.7858 10.1491 13.6108 10.174 13.4525 10.2154C13.3442 10.2403 13.2525 10.2983 13.1942 10.3812C13.1525 10.4475 13.1275 10.5303 13.1275 10.6049C13.1275 10.6795 13.1608 10.7541 13.2108 10.8204C13.2858 10.9116 13.3858 10.9862 13.4942 11.0442C13.6858 11.1437 13.8858 11.2348 14.0858 11.3177C14.5358 11.4669 14.9692 11.6741 15.3692 11.9227C15.6442 12.0968 15.8692 12.3288 16.0275 12.6106C16.1608 12.8758 16.2275 13.1659 16.2192 13.4643C16.2275 13.8538 16.1108 14.2434 15.8942 14.5666C15.6608 14.8981 15.3358 15.1551 14.9608 15.3042C14.5525 15.4783 14.0525 15.5695 13.4525 15.5695C13.0692 15.5695 12.6942 15.5363 12.3192 15.4617C12.0275 15.412 11.7358 15.3208 11.4692 15.1965C11.4108 15.1633 11.3692 15.1053 11.3775 15.039V13.5969C11.3775 13.572 11.3858 13.5389 11.4108 13.5223C11.4358 13.5057 11.4608 13.514 11.4858 13.5306C11.8108 13.7212 12.1525 13.8538 12.5192 13.9367C12.8358 14.0196 13.1692 14.061 13.5025 14.061C13.8192 14.061 14.0442 14.0196 14.1942 13.945C14.3275 13.887 14.4192 13.7461 14.4192 13.5969C14.4192 13.4809 14.3525 13.3731 14.2192 13.2654C14.0858 13.1576 13.8108 13.0333 13.4025 12.8758C12.9775 12.7267 12.5858 12.5278 12.2192 12.2791C11.9608 12.0968 11.7442 11.8564 11.5858 11.5746C11.4525 11.3094 11.3858 11.0193 11.3942 10.7293C11.3942 10.3729 11.4942 10.0331 11.6775 9.72641C11.8858 9.39488 12.1942 9.12967 12.5525 8.96391C12.9442 8.765 13.4358 8.67383 14.0275 8.67383C14.3692 8.67383 14.7192 8.69869 15.0608 8.74842C15.3108 8.78157 15.5525 8.84788 15.7775 8.93904C15.8108 8.94733 15.8442 8.98048 15.8608 9.01364C15.8692 9.04679 15.8775 9.07994 15.8775 9.11309V10.464C15.8775 10.4972 15.8608 10.5303 15.8358 10.5469C15.7608 10.5635 15.7192 10.5635 15.6858 10.5469Z" fill="#31A8FF"/>
</g>
</g>
<defs>
<clipPath id="clip0_1_96">
<rect width="20" height="21" fill="white" transform="translate(0.0199585 0.5625)"/>
</clipPath>
</defs>
</svg>
