<svg width="51" height="51" viewBox="0 0 51 51" fill="none" xmlns="http://www.w3.org/2000/svg">
<mask id="mask0_1_1504" style="mask-type:luminance" maskUnits="userSpaceOnUse" x="0" y="0" width="51" height="51">
<path d="M50.5 0.515625H0.5V50.5156H50.5V0.515625Z" fill="white"/>
</mask>
<g mask="url(#mask0_1_1504)">
<mask id="mask1_1_1504" style="mask-type:luminance" maskUnits="userSpaceOnUse" x="0" y="0" width="51" height="51">
<path d="M50.5 0.515625H0.5V50.5156H50.5V0.515625Z" fill="white"/>
</mask>
<g mask="url(#mask1_1_1504)">
<path d="M9.354 0.515625H41.646C46.542 0.515625 50.5 4.57542 50.5 9.59682V41.4346C50.5 46.4556 46.542 50.5156 41.646 50.5156H9.354C4.458 50.5156 0.5 46.4556 0.5 41.4346V9.59682C0.5 4.57542 4.458 0.515625 9.354 0.515625Z" fill="#001E36"/>
<path d="M10.918 36.0788V14.7578C10.918 14.6128 10.98 14.5298 11.126 14.5298C11.48 14.5298 11.814 14.5298 12.293 14.5088C12.793 14.4878 13.314 14.4878 13.876 14.4678C14.439 14.4468 15.043 14.4468 15.689 14.4258C16.335 14.4048 16.96 14.4048 17.585 14.4048C19.293 14.4048 20.71 14.6128 21.876 15.0478C22.918 15.3998 23.876 15.9798 24.668 16.7468C25.335 17.4098 25.855 18.2178 26.189 19.1088C26.501 19.9788 26.668 20.8698 26.668 21.8018C26.668 23.5838 26.251 25.0548 25.418 26.2158C24.585 27.3758 23.418 28.2458 22.064 28.7438C20.647 29.2618 19.085 29.4478 17.376 29.4478C16.876 29.4478 16.543 29.4478 16.335 29.4268C16.126 29.4068 15.835 29.4068 15.439 29.4068V36.0578C15.46 36.2028 15.355 36.3268 15.21 36.3478C15.189 36.3478 15.168 36.3478 15.126 36.3478H11.168C11.001 36.3478 10.918 36.2648 10.918 36.0788ZM15.46 18.5288V25.4908C15.751 25.5108 16.022 25.5318 16.272 25.5318H17.376C18.189 25.5318 19.001 25.4078 19.772 25.1588C20.439 24.9728 21.022 24.5788 21.48 24.0608C21.918 23.5428 22.126 22.8378 22.126 21.9268C22.147 21.2838 21.98 20.6418 21.647 20.0828C21.293 19.5438 20.793 19.1298 20.189 18.9018C19.418 18.5908 18.585 18.4668 17.73 18.4868C17.189 18.4868 16.71 18.4868 16.314 18.5078C15.897 18.4868 15.605 18.5078 15.46 18.5288Z" fill="#31A8FF"/>
<path d="M39.669 24.2265C39.044 23.8945 38.377 23.6665 37.669 23.5215C36.898 23.3555 36.127 23.2525 35.335 23.2525C34.919 23.2315 34.481 23.2935 34.085 23.3975C33.814 23.4595 33.585 23.6045 33.439 23.8115C33.335 23.9775 33.273 24.1845 33.273 24.3715C33.273 24.5575 33.356 24.7445 33.481 24.9095C33.669 25.1375 33.919 25.3245 34.189 25.4695C34.669 25.7175 35.169 25.9455 35.669 26.1535C36.794 26.5255 37.877 27.0435 38.877 27.6655C39.564 28.1005 40.127 28.6805 40.523 29.3855C40.856 30.0485 41.023 30.7735 41.002 31.5195C41.023 32.4935 40.731 33.4675 40.189 34.2755C39.606 35.1045 38.794 35.7465 37.856 36.1195C36.835 36.5545 35.585 36.7825 34.085 36.7825C33.127 36.7825 32.189 36.6995 31.252 36.5135C30.523 36.3885 29.794 36.1605 29.127 35.8495C28.981 35.7675 28.877 35.6225 28.898 35.4565V31.8515C28.898 31.7885 28.919 31.7055 28.981 31.6645C29.044 31.6235 29.106 31.6435 29.169 31.6855C29.981 32.1615 30.835 32.4935 31.752 32.7005C32.544 32.9075 33.377 33.0115 34.21 33.0115C35.002 33.0115 35.564 32.9075 35.939 32.7215C36.273 32.5765 36.502 32.2235 36.502 31.8515C36.502 31.5605 36.335 31.2915 36.002 31.0225C35.669 30.7525 34.981 30.4425 33.96 30.0485C32.898 29.6755 31.919 29.1785 31.002 28.5565C30.356 28.1005 29.814 27.4995 29.419 26.7955C29.085 26.1325 28.919 25.4075 28.939 24.6815C28.939 23.7905 29.189 22.9415 29.648 22.1745C30.169 21.3455 30.939 20.6825 31.835 20.2685C32.814 19.7715 34.044 19.5435 35.523 19.5435C36.377 19.5435 37.252 19.6055 38.106 19.7295C38.731 19.8125 39.335 19.9785 39.898 20.2065C39.981 20.2275 40.064 20.3095 40.106 20.3925C40.127 20.4755 40.148 20.5585 40.148 20.6415V24.0185C40.148 24.1015 40.106 24.1845 40.044 24.2265C39.856 24.2675 39.752 24.2675 39.669 24.2265Z" fill="#31A8FF"/>
</g>
</g>
</svg>
