<svg width="153" height="57" viewBox="0 0 153 57" fill="none" xmlns="http://www.w3.org/2000/svg">
<path d="M13.0911 28.6868C13.0911 30.4569 13.6071 31.9409 14.5911 33.0898C15.6223 34.2378 16.8883 34.8118 18.4345 34.8118C19.9817 34.8118 21.2477 34.2378 22.2325 33.0898C23.2628 31.9409 23.7788 30.4569 23.7788 28.6868C23.7788 26.9167 23.2628 25.4327 22.2325 24.2847C21.2477 23.1358 19.9817 22.5618 18.4345 22.5618C16.8883 22.5618 15.6223 23.1358 14.5911 24.2847C13.6071 25.4327 13.0911 26.9167 13.0911 28.6868ZM27.2477 37.5392C25.044 39.7888 22.3251 40.9368 19.0911 40.9368C16.6534 40.9368 14.6845 40.2674 13.1845 38.9278V49.6938H6.52881V16.9636H13.0911C13.0911 16.9636 16.6071 16.3887 19.0911 16.3887C22.3251 16.3887 25.044 17.5376 27.2477 19.7863C29.4506 22.0351 30.576 25.0022 30.576 28.6868C30.576 32.3233 29.4506 35.2904 27.2477 37.5392Z" fill="#A3A4A6"/>
<path d="M60.809 32.8019C61.8873 31.6058 62.4496 30.1699 62.4496 28.5433C62.4496 25.2892 60.1524 22.7044 56.5901 22.7044C54.9496 22.7044 53.5901 23.2793 52.5118 24.4273C51.4336 25.5762 50.9184 26.9639 50.9184 28.5433C50.9184 30.1218 51.4807 31.5577 52.559 32.7538C53.6373 33.9499 54.9967 34.572 56.5901 34.572C58.325 34.572 59.7307 33.998 60.809 32.8019ZM62.4496 16.9627H69.1525V40.41H62.4496V38.688C60.6684 40.1712 58.559 40.9368 56.075 40.9368C52.7467 40.9368 49.8873 39.7879 47.543 37.4438C45.1995 35.0988 44.0278 32.1798 44.0278 28.6859C44.0278 25.1929 45.1995 22.2739 47.543 19.9298C49.8873 17.5848 52.7467 16.3887 56.075 16.3887C58.8401 16.3887 62.4496 16.9627 62.4496 16.9627Z" fill="#A3A4A6"/>
<path d="M104.791 23.2314V40.4102H98.1343V16.9629H112.22V23.2314H104.791Z" fill="#A3A4A6"/>
<path d="M27.5264 6.91602V13.1845H33.9498V40.4128H40.6064V6.91602H27.5264Z" fill="#A3A4A6"/>
<path d="M119.024 5.36914C121.506 5.36914 123.408 7.31076 123.408 9.84476C123.408 12.2712 121.401 14.2662 119.024 14.2662C116.647 14.2662 114.693 12.2712 114.693 9.84476C114.693 7.31076 116.647 5.36914 119.024 5.36914Z" fill="#A3A4A6"/>
<path d="M115.698 16.9629H122.401V40.4102H115.698V16.9629Z" fill="#A3A4A6"/>
<path d="M132.797 16.9629L136.266 22.9444L139.735 16.9629H147.235L140.016 28.3519L147.75 40.4102H140.297L136.266 33.7594L132.281 40.4102H124.781L132.516 28.3519L125.297 16.9629H132.797Z" fill="#A3A4A6"/>
<path d="M83.5788 49.694H76.5476L80.2976 40.4111L71.3447 16.9629H78.7505L83.907 31.4625L89.2505 16.9629H96.3759L83.5788 49.694Z" fill="#A3A4A6"/>
</svg>
