<svg width="127" height="48" viewBox="0 0 127 48" fill="none" xmlns="http://www.w3.org/2000/svg">
<g clip-path="url(#clip0_1_281)">
<mask id="mask0_1_281" style="mask-type:luminance" maskUnits="userSpaceOnUse" x="0" y="0" width="127" height="48">
<path d="M126.5 0.453125H0.5V47.4531H126.5V0.453125Z" fill="white"/>
</mask>
<g mask="url(#mask0_1_281)">
<path fill-rule="evenodd" clip-rule="evenodd" d="M31.7407 41.3049C35.6641 41.3049 39.9206 42.6665 44.6333 46.892C45.1054 47.315 45.734 46.7892 45.3212 46.2634C40.6911 40.3458 36.4085 39.2193 32.1376 38.2675C26.9122 37.1014 24.2256 34.1257 22.353 30.8592C21.9808 30.21 21.8128 30.3245 21.7795 31.1603C21.7375 32.181 21.8085 33.5338 22.0344 34.8645C21.823 34.8733 21.6115 34.8718 21.3972 34.8718C13.9241 34.8718 7.86447 28.7383 7.86447 21.1728C7.86447 13.6087 13.9241 7.47669 21.3986 7.47669C28.8717 7.47669 34.9313 13.6087 34.9313 21.1728C34.9313 21.7118 34.9052 22.2449 34.8444 22.7664C33.8567 22.5857 31.9116 22.5651 30.5474 22.6841C30.0347 22.7296 30.1071 22.972 30.4952 23.0425C34.969 23.8606 38.0407 26.6674 38.7446 31.7595C38.7591 31.877 38.9126 31.9108 38.972 31.8094C40.8742 28.5973 41.8762 24.9197 41.87 21.1728C41.87 9.73123 32.7039 0.453125 21.3986 0.453125C10.0919 0.453125 0.925781 9.72975 0.925781 21.1728C0.925781 32.6173 10.0919 41.8954 21.3986 41.8954C24.3965 41.8954 27.3742 41.3049 31.7407 41.3049ZM33.2643 33.782C34.1753 34.5604 34.4519 35.4872 33.9711 36.1408C33.7032 36.4992 33.2687 36.6975 32.7473 36.6975C32.2387 36.6976 31.7461 36.5167 31.3555 36.1863C30.5271 35.4534 30.2838 34.2667 30.824 33.5925C31.0354 33.3281 31.3787 33.1827 31.79 33.1827C32.2896 33.1827 32.8139 33.3957 33.2643 33.782ZM37.4672 31.8021C37.6005 32.7098 37.3181 33.0858 37.0327 33.0858C36.7214 33.0858 36.3318 32.7186 35.8727 31.9916C35.4179 31.2748 35.2514 30.4523 35.4773 30.0367C35.625 29.762 35.9364 29.6416 36.3289 29.7929C37.0892 30.0822 37.3861 31.2601 37.4672 31.8021ZM65.8448 27.058L63.4841 24.1837C63.4287 24.1159 63.3935 24.0336 63.3827 23.9462C63.3719 23.8589 63.3858 23.7703 63.4229 23.6907C63.46 23.6111 63.5187 23.5439 63.5921 23.497C63.6656 23.4501 63.7507 23.4254 63.8374 23.4258H68.7746C69.0092 22.7179 69.1425 21.9615 69.1425 21.1742C69.1425 17.5758 66.495 14.4723 62.8628 14.4723C59.2305 14.4723 56.583 17.5758 56.583 21.1742C56.583 24.7727 59.2305 27.8335 62.8628 27.8335C63.9634 27.8335 64.9714 27.5486 65.8462 27.0566L65.8448 27.058ZM76.5243 31.9123C76.7807 32.2001 76.5707 32.6613 76.184 32.6613H70.7964C70.6881 32.6615 70.5812 32.6375 70.4831 32.591C70.3849 32.5446 70.2981 32.4768 70.2287 32.3925L69.3163 31.2807C67.3948 32.5445 65.153 33.2159 62.8628 33.2136C56.3035 33.2136 50.9681 27.813 50.9681 21.1742C50.9681 14.5355 56.3035 9.1349 62.8628 9.1349C69.422 9.1349 74.7574 14.5355 74.7574 21.1742C74.7574 23.5683 74.0623 25.7979 72.8674 27.6749L76.5243 31.9123ZM126.3 9.69156H121.902C121.747 9.69195 121.599 9.75443 121.489 9.86535C121.38 9.97627 121.318 10.1266 121.318 10.2835V32.0694C121.318 32.3969 121.579 32.6613 121.902 32.6613H126.3C126.623 32.6613 126.885 32.3969 126.885 32.0694V10.282C126.885 10.1246 126.824 9.97371 126.714 9.86242C126.604 9.75114 126.455 9.68863 126.3 9.68863V9.69156ZM118.899 9.69156H113.981C113.856 9.69107 113.734 9.73117 113.633 9.80597C113.533 9.88076 113.458 9.98633 113.421 10.1072L109.528 22.9823L105.248 10.0925C105.209 9.97495 105.134 9.87282 105.035 9.8006C104.935 9.72838 104.816 9.68972 104.693 9.69009H101.261C101.138 9.68964 101.019 9.72823 100.919 9.80044C100.819 9.87265 100.744 9.97482 100.705 10.0925L96.4266 22.9823L92.5336 10.1072C92.4964 9.98606 92.4219 9.88017 92.3211 9.80509C92.2202 9.73001 92.0982 9.6897 91.9731 9.69009H87.0533C86.9609 9.69026 86.8698 9.71255 86.7875 9.75519C86.7052 9.7978 86.634 9.85954 86.5797 9.93538C86.5255 10.0105 86.4898 10.0977 86.4757 10.1897C86.4615 10.2817 86.4694 10.3758 86.4986 10.4641L93.7255 32.2618C93.8052 32.5027 94.0297 32.6643 94.2802 32.6643H98.1848C98.4368 32.6643 98.6598 32.5027 98.7394 32.2633L102.977 19.5278L107.213 32.2618C107.293 32.5027 107.517 32.6643 107.768 32.6643H111.674C111.926 32.6643 112.149 32.5027 112.229 32.2618L119.456 10.4641C119.485 10.3759 119.493 10.2819 119.479 10.19C119.465 10.098 119.43 10.0107 119.376 9.93538C119.321 9.85944 119.25 9.79764 119.167 9.755C119.085 9.71239 118.994 9.69014 118.901 9.69009L118.899 9.69156ZM84.6361 10.2835V32.0694C84.6361 32.3969 84.3755 32.6613 84.051 32.6613H79.6541C79.4991 32.6613 79.3505 32.599 79.2409 32.4881C79.1312 32.3771 79.0694 32.2265 79.069 32.0694V10.282C79.069 9.95446 79.3297 9.68863 79.6541 9.68863H84.051C84.374 9.68863 84.6361 9.953 84.6361 10.282V10.2835Z" fill="#A3A4A6"/>
</g>
</g>
<defs>
<clipPath id="clip0_1_281">
<rect width="126" height="47" fill="white" transform="translate(0.5 0.453125)"/>
</clipPath>
</defs>
</svg>
