<svg width="69" height="69" viewBox="0 0 69 69" fill="none" xmlns="http://www.w3.org/2000/svg">
<g clip-path="url(#clip0_1_316)">
<mask id="mask0_1_316" style="mask-type:luminance" maskUnits="userSpaceOnUse" x="1" y="0" width="67" height="68">
<path d="M68 0.953125H1V67.9531H68V0.953125Z" fill="white"/>
</mask>
<g mask="url(#mask0_1_316)">
<path fill-rule="evenodd" clip-rule="evenodd" d="M24.2267 0.953125H44.7733C63.5333 0.953125 68 5.41979 68 24.1798V44.7264C68 63.4864 63.5333 67.9531 44.7733 67.9531H24.2267C5.46667 67.9531 1 63.4864 1 44.7264V24.1798C1 5.41979 5.46667 0.953125 24.2267 0.953125Z" fill="#A3A4A6"/>
<path fill-rule="evenodd" clip-rule="evenodd" d="M55.8679 24.0341C56.1783 22.999 55.8679 22.2383 54.3905 22.2383H49.5051C48.2629 22.2383 47.6902 22.8954 47.3796 23.62C47.3796 23.62 44.8952 29.6757 41.3758 33.6092C40.2371 34.7478 39.7195 35.1101 39.0984 35.1101C38.7879 35.1101 38.3384 34.7478 38.3384 33.7128V24.0342C38.3384 22.7919 37.9779 22.2383 36.9426 22.2383H29.2655C28.4892 22.2383 28.0224 22.8149 28.0224 23.3613C28.0224 24.5389 29.782 24.8104 29.9634 28.123V35.3173C29.9634 36.8946 29.6786 37.1806 29.0575 37.1806C27.4013 37.1806 23.3726 31.0978 20.9833 24.1376C20.515 22.7848 20.0453 22.2383 18.7968 22.2383H13.9113C12.5155 22.2383 12.2363 22.8954 12.2363 23.62C12.2363 24.914 13.8926 31.3319 19.9482 39.8201C23.9852 45.6169 29.6731 48.7592 34.8488 48.7592C37.9543 48.7592 38.3384 48.0612 38.3384 46.8591V42.4779C38.3384 41.0821 38.6326 40.8035 39.616 40.8035C40.3406 40.8035 41.5828 41.1658 44.4813 43.9607C47.7937 47.2732 48.3398 48.7592 50.203 48.7592H55.0884C56.4843 48.7592 57.1822 48.0613 56.7796 46.684C56.339 45.3113 54.7575 43.3197 52.6589 40.9588C51.5202 39.6131 49.8123 38.1639 49.2946 37.4392C48.5701 36.5077 48.7771 36.0935 49.2946 35.2655C49.2946 35.2655 55.2468 26.8808 55.8679 24.0341Z" fill="#F5F5F5"/>
</g>
</g>
<defs>
<clipPath id="clip0_1_316">
<rect width="68" height="68" fill="white" transform="translate(0.5 0.453125)"/>
</clipPath>
</defs>
</svg>
