<svg width="164" height="76" viewBox="0 0 164 76" fill="none" xmlns="http://www.w3.org/2000/svg">
<g clip-path="url(#clip0_1_275)">
<mask id="mask0_1_275" style="mask-type:luminance" maskUnits="userSpaceOnUse" x="0" y="0" width="164" height="76">
<path d="M164 0.453125H0V75.4531H164V0.453125Z" fill="white"/>
</mask>
<g mask="url(#mask0_1_275)">
<path d="M81.4916 0.470852C86.5518 0.358765 91.657 1.81671 95.8194 4.69501C100.27 7.71257 103.651 12.2546 105.241 17.371C106.858 22.4982 106.689 28.1645 104.753 33.1812C102.601 38.8412 98.2086 43.6228 92.728 46.2505C88.0764 48.5439 82.6677 49.2466 77.5741 48.2808C71.9974 47.2582 66.8341 44.1863 63.2763 39.8029C59.768 35.549 57.7797 30.0591 57.8507 24.5534C57.7985 19.5635 59.431 14.5895 62.3533 10.5418C66.683 4.44744 73.9864 0.600517 81.4916 0.470852ZM75.2432 6.36185C71.3151 7.81736 67.8734 10.5557 65.6138 14.0683C63.0397 17.9706 62.0259 22.8059 62.6475 27.4206C64.4098 23.6119 66.6355 19.9533 69.6771 17.015C72.4917 14.1145 76.0056 11.9731 79.7099 10.3851C78.9972 9.78098 78.2874 9.17674 77.5911 8.55884C81.5684 7.84251 85.7759 8.16051 89.5352 9.6766C87.0826 12.2665 84.563 14.8285 82.5742 17.8003C82.2952 16.5253 82.0383 15.2428 81.7565 13.9689C78.6988 16.0124 76.5329 19.1736 75.2928 22.5895C73.5664 27.3787 73.2603 32.6412 74.2404 37.6251C76.0635 37.3452 77.8756 36.9113 79.5747 36.1865C83.5716 34.5468 86.7268 31.3393 88.8117 27.6264C87.4638 27.6625 86.1185 27.7883 84.7704 27.8462C87.4331 24.9874 89.8306 21.8541 91.6294 18.3826C93.6951 21.7247 95.3723 25.2867 96.8252 28.9312C95.7425 28.5985 94.6565 28.2721 93.5626 27.9776C93.7008 32.4906 93.3222 37.0349 92.0734 41.3908C97.1452 38.4492 100.712 33.1217 101.51 27.3415C102.095 23.2932 101.338 19.0637 99.3858 15.4665C96.9798 10.9159 92.6703 7.42242 87.7181 5.95879C83.66 4.73611 79.2101 4.88443 75.2432 6.36185ZM46.0952 62.2344C46.9651 60.6988 48.7116 59.8093 50.4518 59.7433C52.4354 59.6501 54.4213 59.7267 56.4076 59.7025C56.4076 60.8231 56.4076 61.9434 56.4047 63.0667C54.7001 63.0696 52.9932 63.0608 51.2861 63.0639C50.5073 63.0554 49.6478 63.2584 49.1673 63.92C48.643 64.5958 48.7473 65.4991 48.7362 66.3007C48.7694 67.573 48.692 68.8444 48.7668 70.116C48.8216 70.9696 49.358 71.849 50.247 72.0438C51.2529 72.2276 52.2855 72.1185 53.3027 72.0738C53.2994 71.1101 53.2994 70.1455 53.3027 69.1823C52.6559 69.177 52.0095 69.1746 51.3629 69.1716C51.3658 68.1916 51.3658 67.2083 51.3658 66.2275C53.1392 66.2248 54.91 66.2248 56.6807 66.2248C56.6665 68.9735 56.7219 71.7226 56.6528 74.4689C54.8462 75.7814 52.5392 75.3641 50.4543 75.4275C48.5176 75.4689 46.6421 74.2852 45.8444 72.5298C45.0704 70.932 45.3305 69.1191 45.2887 67.4054C45.283 65.6639 45.1756 63.7939 46.0952 62.2344ZM109.256 61.9016C110.167 60.5394 111.803 59.8121 113.418 59.7409C115.404 59.6502 117.396 59.7268 119.388 59.7022C119.388 60.8228 119.388 61.9431 119.385 63.0664C117.587 63.0771 115.788 63.0444 113.99 63.0741C113.12 63.0827 112.145 63.4973 111.866 64.3842C111.471 65.7139 111.725 67.1197 111.648 68.4871C111.634 69.6709 111.565 71.2193 112.775 71.8839C113.877 72.3397 115.123 72.0957 116.286 72.0605C116.278 71.0994 116.28 70.1409 116.283 69.1823C115.637 69.177 114.99 69.1742 114.343 69.1716C114.346 68.1916 114.346 67.2083 114.346 66.2275C116.12 66.2248 117.89 66.2248 119.661 66.2275C119.672 68.9436 119.65 71.6593 119.675 74.3782C117.907 75.8011 115.556 75.3641 113.462 75.4301C111.512 75.488 109.603 74.3121 108.805 72.5437C107.999 70.9424 108.339 69.1136 108.27 67.3973C108.248 65.5379 108.112 63.4973 109.256 61.9016ZM0 59.9053C1.27895 59.9108 2.55804 59.9081 3.83917 59.9081C4.62689 63.1568 5.34429 66.4223 6.15934 69.6646C6.62338 66.4055 7.2143 63.1645 7.71982 59.91C9.17013 59.9041 10.6176 59.9072 12.0678 59.91C12.5952 63.1588 13.1286 66.4104 13.6588 69.659C14.4157 66.4076 15.1841 63.1559 15.9517 59.9072C17.2309 59.9072 18.5126 59.91 19.7911 59.9041C18.3711 65.0533 16.9265 70.1972 15.5206 75.3517C14.2086 75.3548 12.8991 75.3576 11.5869 75.3488C11.0317 72.1221 10.4269 68.9011 9.90168 65.6682C9.34639 68.9011 8.77165 72.1277 8.1946 75.3548H4.27192C2.86472 70.2009 1.41985 65.0574 0 59.9053ZM18.524 75.3557C19.9414 70.2034 21.3776 65.0574 22.7997 59.9081H26.7444C28.1614 65.0601 29.6006 70.2034 31.0149 75.3525C29.822 75.3557 28.6279 75.3525 27.4318 75.3584C27.1943 74.3038 26.9705 73.2493 26.722 72.1976C25.4382 72.1943 24.1531 72.1976 22.8658 72.1943C22.6338 73.2462 22.3932 74.2954 22.1641 75.3471C20.9523 75.361 19.7369 75.3557 18.524 75.3557ZM23.5573 69.4514C24.3997 69.4481 25.2427 69.4514 26.0847 69.4588C25.6733 67.5997 25.2389 65.7488 24.8225 63.8953C24.3997 65.7467 23.9745 67.5974 23.5573 69.4514ZM32.789 59.8394C35.2784 59.847 37.7645 59.82 40.2533 59.85C41.7283 59.8221 43.2638 60.8855 43.3499 62.4264C43.3639 63.8048 43.3639 65.1835 43.3472 66.5624C43.314 67.6553 42.4462 68.4907 41.499 68.91C42.4052 71.0358 43.3167 73.1593 44.2255 75.2875H40.27C39.5627 73.3649 38.8948 71.4289 38.1704 69.5145C37.4798 69.5176 36.7922 69.5204 36.1044 69.5204C36.1016 71.4428 36.1103 73.3678 36.0987 75.2903C34.9966 75.2849 33.8944 75.2849 32.7921 75.2903C32.7833 70.1377 32.789 64.9886 32.789 59.8394ZM36.1039 62.9291C36.1039 64.1207 36.101 65.3098 36.1069 66.5018C37.1065 66.4772 38.1064 66.5457 39.1039 66.4746C39.7395 66.4246 40.1098 65.7847 40.0406 65.1946C40.0184 64.469 40.267 63.3657 39.4136 63.0225C38.3275 62.8108 37.2062 62.9809 36.1039 62.9291ZM61.8848 59.9108C63.1969 59.9047 64.509 59.9137 65.8239 59.9026C67.2605 65.049 68.6916 70.1981 70.0998 75.3561H66.5171C66.2818 74.2984 66.0585 73.2409 65.8015 72.1897C64.5221 72.2034 63.2404 72.198 61.959 72.1958C61.7323 73.2503 61.4834 74.2989 61.2601 75.3565H57.6194C59.0256 70.2032 60.4788 65.0628 61.8848 59.9108ZM62.6473 69.4539C63.4896 69.4514 64.3347 69.4514 65.1771 69.4514C64.7628 67.5944 64.3264 65.7437 63.9174 63.8876C63.484 65.7407 63.0697 67.5974 62.6473 69.4539ZM71.6026 59.9081C73.0164 59.911 74.4307 59.8997 75.8451 59.9188C76.82 63.676 77.8394 67.4208 78.8284 71.1751C79.8899 67.4297 80.8614 63.6622 81.8972 59.9103C83.2977 59.9075 84.6984 59.9075 86.1016 59.9075V75.3551H82.9249C82.9499 72.4194 82.8701 69.4861 82.8149 66.5525C82 69.4692 81.2924 72.4189 80.5438 75.3551C79.3979 75.352 78.2511 75.3686 77.1079 75.3356C76.3787 72.326 75.6052 69.3268 74.8508 66.3251C74.8371 69.3352 74.8481 72.3416 74.845 75.3548H71.5993C71.5998 70.2065 71.5969 65.0574 71.6026 59.9081ZM88.798 59.9108C89.9216 59.908 91.0485 59.908 92.1786 59.908V75.3556H88.7947C88.7955 70.2065 88.7955 65.0574 88.798 59.9108ZM94.8746 59.9108C95.9768 59.908 97.0788 59.9047 98.1815 59.9108C99.8195 62.9042 101.446 65.9005 103.098 68.8852C103.079 65.8923 103.092 62.9016 103.092 59.9108C104.172 59.908 105.252 59.908 106.332 59.9108C106.335 65.0572 106.335 70.2064 106.335 75.3529C105.23 75.3557 104.128 75.3557 103.029 75.3529C101.379 72.3176 99.7579 69.27 98.1063 66.2379C98.1282 69.2779 98.1123 72.3153 98.1174 75.3559H94.8716C94.8725 70.2065 94.8725 65.0574 94.8746 59.9108ZM127.813 59.9081C128.913 59.9081 130.015 59.911 131.114 59.9053C132.794 62.9176 134.415 65.9604 136.095 68.9731C136.109 65.9497 136.095 62.9289 136.1 59.908C137.158 59.908 138.216 59.908 139.274 59.9108C139.277 65.0572 139.277 70.2064 139.277 75.3556C138.166 75.3524 137.056 75.3663 135.948 75.3384C134.346 72.2765 132.667 69.256 131.051 66.2018C131.07 69.25 131.051 72.3007 131.062 75.3518C129.979 75.3578 128.896 75.3549 127.813 75.3549C127.813 70.2065 127.811 65.0574 127.813 59.9081ZM141.765 59.9108C145.077 59.908 148.392 59.908 151.707 59.908C151.704 60.9133 151.704 61.9176 151.71 62.923C149.522 62.9364 147.334 62.923 145.147 62.9289C145.144 63.89 145.144 64.8513 145.147 65.8124H151.083C151.086 66.8176 151.086 67.8255 151.083 68.8298C149.105 68.833 147.127 68.8331 145.149 68.8331C145.144 69.9754 145.144 71.1206 145.149 72.2658H151.704C151.707 73.2957 151.707 74.3253 151.704 75.3556H141.762C141.763 70.2065 141.76 65.0574 141.765 59.9108ZM153.296 59.9108C156.865 59.9047 160.431 59.9108 164 59.908V62.9289H160.412C160.406 67.0483 160.412 71.1675 160.406 75.2868H157.028C157.025 71.1701 157.022 67.0533 157.028 62.9361C155.785 62.9254 154.539 62.9254 153.296 62.9287V59.9108ZM122.013 72.1976C123.092 72.1976 124.172 72.1976 125.252 72.1943C125.258 73.2462 125.258 74.2981 125.26 75.3499C124.178 75.3582 123.095 75.356 122.012 75.356C122.013 74.3011 122.01 73.2493 122.013 72.1976Z" fill="#A3A4A6"/>
</g>
</g>
<defs>
<clipPath id="clip0_1_275">
<rect width="164" height="75" fill="white" transform="translate(0 0.453125)"/>
</clipPath>
</defs>
</svg>
