<svg width="154" height="45" viewBox="0 0 154 45" fill="none" xmlns="http://www.w3.org/2000/svg">
<g clip-path="url(#clip0_1_293)">
<mask id="mask0_1_293" style="mask-type:luminance" maskUnits="userSpaceOnUse" x="0" y="0" width="154" height="45">
<path d="M153.5 0.453125H0.5V44.4531H153.5V0.453125Z" fill="white"/>
</mask>
<g mask="url(#mask0_1_293)">
<path d="M146.504 38.7655C149.505 38.7655 151.632 38.2259 153.216 37.0636V31.7919C151.59 32.9126 149.631 33.6183 146.879 33.6183C142.251 33.6183 140.334 30.0485 140.334 24.4032C140.334 18.4674 142.668 15.4372 146.921 15.4372C149.422 15.4372 151.882 16.3089 153.174 17.1391V11.6598C151.798 10.9126 149.422 10.373 146.17 10.373C137.874 10.373 133.58 16.3089 133.58 24.6108C133.622 33.7013 137.832 38.7655 146.504 38.7655ZM105.94 36.3579V31.0862C103.939 32.456 100.52 33.6598 97.3937 33.6598C92.6412 33.6598 90.8485 31.4183 90.5567 26.8523H106.232V23.4485C106.232 13.9428 102.021 10.373 95.5594 10.373C87.6384 10.373 83.8864 16.3919 83.8864 24.6523C83.8864 34.1579 88.5973 38.7655 96.8518 38.7655C100.979 38.7655 104.022 37.6447 105.94 36.3579ZM46.4493 10.8711V21.6636H37.778V10.8711H31.2744V38.2259H37.778V26.8108H46.4493V38.2259H52.9529V10.8711H46.4493ZM82.2605 33.0787H79.3839V10.8711H60.457V13.1957C60.457 19.8787 60.0401 28.5126 57.7472 33.0787H55.6627V44.4523H61.666V38.2259H76.2155V44.4523H82.2188V33.0787H82.2605ZM126.66 38.2259H134.039L123.616 23.49L132.788 10.8711H126.243L117.071 23.49V10.8711H110.568V38.2259H117.071V24.7768L126.66 38.2259ZM95.3927 15.4372C98.6027 15.4372 99.6033 18.0938 99.6033 21.5391V22.0787H90.5567C90.7234 17.7202 92.3076 15.4372 95.3927 15.4372ZM72.8804 33.0787H63.7087C65.5014 28.9692 66.0017 21.4976 66.0017 16.7655V15.9353H72.8804V33.0787Z" fill="#A3A4A6"/>
<path d="M25.7221 38.2267H19.0935V5.55878H16.1335C10.7139 5.55878 7.87902 8.2569 7.87902 12.2833C7.87902 16.8493 9.83842 18.9663 13.8823 21.6644L17.2174 23.9059L7.62888 38.2267H0.5L9.1297 25.4418C4.16867 21.9135 1.37548 18.4682 1.37548 12.6569C1.37548 5.39275 6.46158 0.453125 16.0918 0.453125H25.6804V38.2267H25.7221Z" fill="#A3A4A6"/>
</g>
</g>
<defs>
<clipPath id="clip0_1_293">
<rect width="153" height="44" fill="white" transform="translate(0.5 0.453125)"/>
</clipPath>
</defs>
</svg>
